<svg version="1.1" id="Layer_1" xmlns="http://www.w3.org/2000/svg" xmlns:xlink="http://www.w3.org/1999/xlink" x="0px" y="0px"
	 width="100%" viewBox="0 0 512 512" enable-background="new 0 0 512 512" xml:space="preserve">

<path fill="#53B716" opacity="1.000000" stroke="none" 
	d="
M205.036285,187.808563 
	C205.990555,187.054672 206.944839,186.300797 208.402496,185.263977 
	C209.841507,184.673126 210.815750,184.450150 211.707077,184.044785 
	C230.475937,175.509247 250.067734,171.953659 270.558990,174.932343 
	C295.636963,178.577774 316.478760,189.907288 331.886871,210.128128 
	C330.103638,211.189102 328.345184,211.882416 327.324890,213.163574 
	C323.908020,217.454086 320.765778,221.962692 317.498230,226.372879 
	C312.577179,233.014771 307.639130,239.644073 302.278473,246.857086 
	C298.622314,235.484085 295.280243,224.879196 291.749054,214.337646 
	C291.242371,212.825012 289.882568,210.507721 288.816528,210.450653 
	C282.128510,210.092651 275.411835,210.269608 268.163055,210.269608 
	C273.349823,226.306534 277.905792,241.571655 283.282776,256.541901 
	C286.153503,264.534424 284.832428,270.933685 279.750000,277.379639 
	C273.527985,285.270874 267.760162,293.520233 261.160339,302.477386 
	C269.008453,302.477386 275.783752,302.287140 282.540619,302.557404 
	C285.934204,302.693146 287.941437,301.484222 289.919067,298.792206 
	C307.641724,274.667664 325.510193,250.650208 343.571320,226.859192 
	C352.206451,242.444214 355.599792,258.761780 353.241913,276.132233 
	C352.379639,282.484711 351.096161,288.779968 350.004822,295.101349 
	C350.004822,295.101349 350.000824,294.992004 349.752991,294.924530 
	C349.384003,295.239288 349.262848,295.621521 349.141693,296.003784 
	C348.780121,296.515686 348.418549,297.027588 347.663086,297.994995 
	C323.879730,320.734161 296.479736,332.146332 263.893799,327.922882 
	C240.518158,324.893219 221.142029,314.160522 207.140228,294.968933 
	C218.050446,301.720001 229.818024,303.092316 242.011307,302.434784 
	C243.083511,302.376923 244.559998,302.117493 245.115982,301.390991 
	C250.023163,294.978607 254.764435,288.439270 260.144379,281.137177 
	C250.282410,281.137177 241.509186,281.250854 232.740067,281.109009 
	C221.243164,280.923035 210.178406,270.795563 208.817139,259.431335 
	C207.149384,245.508438 218.704483,232.092010 232.740219,231.857285 
	C241.949890,231.703262 251.164246,231.828186 260.916718,231.828186 
	C258.390686,224.107407 256.133118,217.207169 253.869705,210.289108 
	C246.115204,210.289108 238.770309,209.971725 231.462326,210.356033 
	C216.835938,211.125183 204.706406,217.225586 196.174881,229.216278 
	C192.768478,234.003815 190.739777,239.771591 188.035309,244.620834 
	C186.739838,227.589554 190.460571,212.196777 198.880829,197.920410 
	C200.885284,194.521866 202.981995,191.177719 205.036285,187.808563 
z"/>
<path fill="#FCE900" opacity="1.000000" stroke="none" 
	d="
M204.672943,187.895386 
	C202.981995,191.177719 200.885284,194.521866 198.880829,197.920410 
	C190.460571,212.196777 186.739838,227.589554 188.047852,245.059418 
	C189.177048,264.301147 195.081650,280.793396 206.778946,295.083588 
	C221.142029,314.160522 240.518158,324.893219 263.893799,327.922882 
	C296.479736,332.146332 323.879730,320.734161 347.543579,298.287964 
	C344.304352,310.282196 337.777527,320.973785 329.784637,330.418549 
	C317.164337,345.331299 301.931641,356.950165 282.541016,362.094452 
	C270.879395,365.188232 259.134399,365.093292 247.606674,362.100220 
	C222.358856,355.544769 203.578262,339.359406 187.469559,319.807800 
	C179.537445,310.180359 172.221176,299.988739 165.301910,289.602295 
	C160.160568,281.884613 157.571213,273.053741 156.944092,263.621429 
	C155.222351,237.725204 167.043442,217.981583 185.315613,201.399506 
	C191.013306,196.228851 197.943573,192.416412 204.672943,187.895386 
z"/>
<path fill="#43C2E7" opacity="1.000000" stroke="none" 
	d="
M332.249847,210.029800 
	C316.478760,189.907288 295.636963,178.577774 270.558990,174.932343 
	C250.067734,171.953659 230.475937,175.509247 211.707077,184.044785 
	C210.815750,184.450150 209.841507,184.673126 208.537292,184.973526 
	C215.798401,175.346329 225.706024,168.370804 236.215881,162.541077 
	C244.483780,157.954956 253.488815,154.557541 262.435547,151.393021 
	C267.092621,149.745804 272.328979,149.145004 277.308563,149.121841 
	C288.263977,149.070892 299.175720,148.309921 310.070190,151.748886 
	C322.338379,155.621506 333.389648,161.391769 342.994995,169.622879 
	C355.758209,180.560059 364.728699,194.203979 369.241699,210.592422 
	C377.121094,239.205734 373.056641,265.633759 354.961029,289.529938 
	C353.583038,291.349609 352.089813,293.081970 350.327484,294.978149 
	C351.096161,288.779968 352.379639,282.484711 353.241913,276.132233 
	C355.599792,258.761780 352.206451,242.444214 343.448059,226.537964 
	C339.476074,220.649155 335.862976,215.339478 332.249847,210.029800 
z"/>
<path fill="#43C2E7" opacity="1.000000" stroke="none" 
	d="
M349.383301,295.928894 
	C349.262848,295.621521 349.384003,295.239288 349.807678,294.922455 
	C349.948425,295.276581 349.786652,295.565308 349.383301,295.928894 
z"/>
<path fill="#FCFEFC" opacity="1.000000" stroke="none" 
	d="
M331.886871,210.128128 
	C335.862976,215.339478 339.476074,220.649155 343.212463,226.280045 
	C325.510193,250.650208 307.641724,274.667664 289.919067,298.792206 
	C287.941437,301.484222 285.934204,302.693146 282.540619,302.557404 
	C275.783752,302.287140 269.008453,302.477386 261.160339,302.477386 
	C267.760162,293.520233 273.527985,285.270874 279.750000,277.379639 
	C284.832428,270.933685 286.153503,264.534424 283.282776,256.541901 
	C277.905792,241.571655 273.349823,226.306534 268.163055,210.269608 
	C275.411835,210.269608 282.128510,210.092651 288.816528,210.450653 
	C289.882568,210.507721 291.242371,212.825012 291.749054,214.337646 
	C295.280243,224.879196 298.622314,235.484085 302.278473,246.857086 
	C307.639130,239.644073 312.577179,233.014771 317.498230,226.372879 
	C320.765778,221.962692 323.908020,217.454086 327.324890,213.163574 
	C328.345184,211.882416 330.103638,211.189102 331.886871,210.128128 
z"/>
<path fill="#FCFEFC" opacity="1.000000" stroke="none" 
	d="
M207.140228,294.968933 
	C195.081650,280.793396 189.177048,264.301147 188.096481,245.531754 
	C190.739777,239.771591 192.768478,234.003815 196.174881,229.216278 
	C204.706406,217.225586 216.835938,211.125183 231.462326,210.356033 
	C238.770309,209.971725 246.115204,210.289108 253.869705,210.289108 
	C256.133118,217.207169 258.390686,224.107407 260.916718,231.828186 
	C251.164246,231.828186 241.949890,231.703262 232.740219,231.857285 
	C218.704483,232.092010 207.149384,245.508438 208.817139,259.431335 
	C210.178406,270.795563 221.243164,280.923035 232.740067,281.109009 
	C241.509186,281.250854 250.282410,281.137177 260.144379,281.137177 
	C254.764435,288.439270 250.023163,294.978607 245.115982,301.390991 
	C244.559998,302.117493 243.083511,302.376923 242.011307,302.434784 
	C229.818024,303.092316 218.050446,301.720001 207.140228,294.968933 
z"/>
</svg>
