<svg version="1.1" id="Layer_1" xmlns="http://www.w3.org/2000/svg" xmlns:xlink="http://www.w3.org/1999/xlink" x="0px" y="0px"
	 width="100%" viewBox="0 0 862 862" enable-background="new 0 0 862 862" xml:space="preserve">

<path fill="#5EA3C9" opacity="1.000000" stroke="none" 
	d="
M345.993835,328.832123 
	C345.332611,328.883850 344.639465,329.091827 344.014954,328.964142 
	C331.729034,326.452698 322.707733,332.453094 314.266449,340.184387 
	C311.165619,343.024384 307.786774,345.560852 303.563568,349.034607 
	C314.397491,349.034607 324.230377,349.034607 334.522614,349.471985 
	C332.985168,353.883942 330.988342,357.858521 328.991486,361.833099 
	C307.432495,361.833099 285.873505,361.833099 263.430328,361.833099 
	C269.168549,372.897919 274.457581,383.096527 279.482178,393.760681 
	C278.223541,395.518158 277.162598,396.764862 276.248932,398.111511 
	C274.335999,400.931061 272.076324,402.196777 268.887360,400.042572 
	C261.162537,385.389618 253.437744,370.736664 245.502762,355.685059 
	C252.269226,349.760773 258.761841,343.963593 265.378815,338.312012 
	C273.236847,331.600342 281.201294,325.013306 289.120605,318.373413 
	C301.311951,308.151642 313.543457,297.977295 325.683624,287.695099 
	C335.464569,279.411072 345.089325,270.942719 354.868347,262.656372 
	C364.751221,254.282013 374.767731,246.065460 384.668640,237.712128 
	C390.075989,233.150009 395.242096,228.292984 400.776184,223.895126 
	C402.640320,222.413696 405.284210,221.189560 407.604675,221.129974 
	C418.417877,220.852249 429.242584,221.023438 440.527863,221.486435 
	C440.049225,224.027573 439.216797,226.176422 438.127930,228.186340 
	C437.241852,229.821930 436.048584,231.291061 434.991516,232.834000 
	C430.166016,232.886963 425.238770,233.589294 420.536987,232.852615 
	C411.767914,231.478729 406.061493,236.077423 400.096863,241.279495 
	C387.601929,252.176865 374.767639,262.684082 362.135864,273.425812 
	C352.377136,281.724396 342.761993,290.191864 332.996033,298.481750 
	C323.246735,306.757477 313.349274,314.858582 303.590332,323.123047 
	C293.828613,331.389862 284.157928,339.764099 273.993347,348.480530 
	C278.947083,349.661438 282.818359,349.060059 286.534912,346.013397 
	C298.428223,336.263763 310.440857,326.658600 322.497986,317.112061 
	C323.516327,316.305786 325.206726,316.062836 326.589752,316.049194 
	C335.080597,315.965332 343.572784,316.022858 352.528870,316.484924 
	C352.143707,318.974854 351.506042,321.139282 350.387939,323.017731 
	C349.152863,325.092560 347.477448,326.905273 345.993835,328.832123 
z"/>
<path fill="#4E87BC" opacity="1.000000" stroke="none" 
	d="
M174.955154,729.889160 
	C176.579926,729.295532 178.190048,728.236816 179.831894,728.185059 
	C189.325638,727.886169 195.558853,722.379395 201.752762,715.919312 
	C215.757568,701.312683 230.248657,687.172241 244.252609,671.754822 
	C234.456757,673.846069 224.660904,675.937317 214.511353,677.728088 
	C217.435745,672.673706 220.713806,667.919922 223.991867,663.166016 
	C235.719650,660.446899 247.476715,657.844482 259.152222,654.916748 
	C261.694305,654.279297 264.414368,652.953918 266.255859,651.137695 
	C283.427399,634.201782 300.374390,617.038513 317.496765,600.052307 
	C324.783630,592.823364 332.272827,585.793823 339.823700,578.840515 
	C340.989563,577.766907 342.964203,577.158997 344.598724,577.084961 
	C349.412079,576.866821 354.242523,577.025391 359.530029,577.486572 
	C359.144196,579.974792 358.506409,582.138916 357.388214,584.017090 
	C356.153198,586.091492 354.477783,587.903687 352.994202,589.830078 
	C348.120270,589.204834 344.813263,591.468506 341.442017,594.897095 
	C322.576843,614.083496 303.458099,633.020508 283.431549,653.036682 
	C287.718048,653.036682 290.909637,653.036682 294.542725,653.469238 
	C294.141571,655.614563 293.453308,657.428162 292.417542,659.014954 
	C291.089417,661.049744 289.481750,662.902100 287.994507,664.833008 
	C287.664368,664.877197 287.316315,665.012939 287.006653,664.952332 
	C275.169495,662.638367 267.313202,668.393982 259.506714,676.662537 
	C242.357101,694.827148 224.049362,711.895447 206.793655,729.964478 
	C201.009659,736.021118 194.355972,738.500671 186.693634,740.046021 
	C179.682770,741.459900 172.757080,743.296143 165.476868,744.565552 
	C166.272339,742.998840 167.732529,741.987000 168.430267,740.593384 
	C170.313324,736.832275 176.310776,735.578369 174.955154,729.889160 
z"/>
<path fill="#70C3D5" opacity="1.000000" stroke="none" 
	d="
M239.994690,129.833511 
	C235.565765,130.550537 231.133774,131.249557 226.711731,132.006760 
	C226.141129,132.104477 225.517700,132.390091 225.094391,132.779572 
	C210.835770,145.898605 196.691391,159.143463 182.327621,172.146042 
	C171.514297,181.934662 160.402649,191.393127 149.461548,201.041382 
	C134.401505,214.321899 119.370018,227.634888 104.354797,240.966064 
	C103.451958,241.767624 102.528053,242.737885 102.072487,243.822281 
	C93.692848,263.768616 85.380325,283.743134 77.077950,303.721832 
	C76.897179,304.156830 77.002342,304.710663 76.970474,305.598633 
	C76.966820,305.988251 77.001884,305.917389 76.706558,306.011963 
	C76.591431,306.692261 76.771614,307.278046 76.688034,308.099365 
	C74.562424,309.379639 71.341026,309.441010 72.533218,312.878784 
	C73.760025,316.416351 71.857941,318.516541 69.594765,320.613861 
	C67.295708,322.744415 64.511444,324.575836 62.862282,327.133209 
	C60.054943,331.486633 57.205383,332.527283 53.166908,328.997681 
	C56.772427,320.032166 60.318813,311.042328 63.995285,302.105988 
	C72.713318,280.915283 81.330788,259.680023 90.393372,238.636993 
	C92.077919,234.725479 95.235107,231.172272 98.432610,228.238358 
	C109.438461,218.139801 120.769936,208.396408 131.965302,198.504059 
	C146.399918,185.749512 160.810425,172.967651 175.254440,160.223755 
	C189.195068,147.924011 203.192917,135.688980 217.105331,123.357475 
	C221.276978,119.659859 225.593842,117.044144 231.587234,117.904266 
	C235.342697,118.443207 239.236465,118.018326 243.507507,118.459900 
	C242.629440,122.540443 241.312073,126.186981 239.994690,129.833511 
z"/>
<path fill="#6DBFD3" opacity="1.000000" stroke="none" 
	d="
M53.005329,329.331055 
	C57.205383,332.527283 60.054943,331.486633 62.862282,327.133209 
	C64.511444,324.575836 67.295708,322.744415 69.594765,320.613861 
	C71.857941,318.516541 73.760025,316.416351 72.533218,312.878784 
	C71.341026,309.441010 74.562424,309.379639 76.860832,307.717621 
	C77.198898,306.705994 77.100388,306.311707 77.001884,305.917389 
	C77.001884,305.917389 76.966820,305.988251 76.927414,305.991150 
	C79.024803,304.725525 81.494324,303.805237 83.244865,302.132477 
	C95.364639,290.551392 107.286247,278.763245 119.365417,267.139221 
	C133.914062,253.138763 148.536118,239.214371 163.163025,225.295532 
	C176.231644,212.859543 189.325226,200.449509 202.454605,188.077713 
	C212.426544,178.681168 222.472015,169.362625 232.653290,159.851990 
	C235.394577,161.350784 238.057449,162.806717 240.805359,164.916824 
	C239.868469,166.809677 238.768829,167.993027 237.839920,169.297958 
	C235.532700,172.539185 233.303391,175.835876 231.042786,179.110291 
	C221.351395,188.245529 211.592896,197.310883 201.985138,206.533279 
	C189.331818,218.679062 176.796936,230.948273 163.954163,243.413834 
	C165.322037,244.436371 166.549301,245.353790 167.900085,246.985443 
	C168.393311,252.486496 165.618073,255.407257 162.010223,257.833954 
	C159.293503,256.158356 156.576782,254.482727 153.925552,252.847488 
	C147.187912,259.150574 140.619583,265.178345 134.182663,271.343323 
	C123.536674,281.539612 113.012024,291.862549 102.369362,302.062347 
	C88.528786,315.326935 74.652237,328.554352 60.732117,341.735443 
	C54.183109,347.936737 47.496193,353.992340 40.000751,359.623199 
	C44.281750,349.636963 48.562748,339.650726 53.005329,329.331055 
z"/>
<path fill="#4F8ABE" opacity="1.000000" stroke="none" 
	d="
M396.990753,526.834961 
	C388.007080,526.888855 379.018250,526.795410 370.043579,527.108215 
	C368.001343,527.179321 365.487732,528.138428 364.070709,529.563477 
	C344.626495,549.118225 325.323395,568.813538 306.013062,588.501221 
	C291.246979,603.555786 276.467316,618.597778 261.816986,633.764465 
	C258.685608,637.006226 255.402374,638.941284 250.726654,639.143127 
	C246.397430,639.329956 242.113876,640.575073 237.219009,640.313599 
	C258.993469,618.072205 280.767944,595.830811 302.832855,573.292725 
	C294.279022,568.087036 285.735962,562.887939 277.359863,557.217712 
	C281.074738,554.493469 286.123810,553.253174 283.990814,547.166809 
	C293.529572,552.667236 303.068329,558.167725 310.818329,562.636658 
	C317.295441,556.871948 323.547272,551.675659 329.373688,546.039551 
	C339.177032,536.556458 348.789703,526.871277 358.299347,517.092957 
	C360.590973,514.736633 362.905640,513.875793 366.119080,513.936890 
	C376.097351,514.126770 386.081146,514.025879 396.527588,514.489868 
	C397.205353,518.906311 392.100647,522.869934 396.990753,526.834961 
z"/>
<path fill="#6BBBD2" opacity="1.000000" stroke="none" 
	d="
M185.888840,299.044800 
	C179.092422,294.362457 172.303482,289.669189 165.495682,285.003418 
	C162.970383,283.272675 160.400879,281.606415 157.456024,279.647675 
	C135.795166,300.543152 114.152885,321.420715 91.990982,342.799530 
	C107.052902,341.500214 121.562485,340.248566 136.510193,339.328674 
	C134.296677,343.718201 131.645020,347.775940 128.993347,351.833679 
	C124.851555,352.544067 120.734299,353.498718 116.563217,353.917877 
	C105.137444,355.066071 93.679222,355.891052 82.252838,357.033905 
	C73.974373,357.861877 65.727058,359.000031 57.462738,359.973419 
	C56.881569,360.041901 56.274616,359.891418 54.739582,359.765717 
	C60.000977,354.534576 64.593277,349.789490 69.378738,345.247894 
	C79.436279,335.702942 89.653793,326.326385 99.696472,316.766022 
	C110.143723,306.820496 120.445328,296.722137 130.843185,286.724487 
	C137.759796,280.074036 144.875488,273.623474 151.621872,266.806152 
	C155.002991,263.389465 157.339966,263.506226 161.200958,266.473846 
	C171.109421,274.089630 181.519089,281.053375 191.811035,288.956665 
	C191.654419,290.936859 190.993500,292.328735 191.250275,293.523407 
	C192.263367,298.236908 189.499405,298.984558 185.888840,299.044800 
z"/>
<path fill="#66B0CE" opacity="1.000000" stroke="none" 
	d="
M186.029022,299.364349 
	C189.499405,298.984558 192.263367,298.236908 191.250275,293.523407 
	C190.993500,292.328735 191.654419,290.936859 191.969223,289.262634 
	C198.345322,293.215912 204.645844,297.542114 211.097351,301.971954 
	C251.866943,267.396942 292.713654,232.756546 334.082916,197.672989 
	C336.622284,200.556183 339.240906,203.389633 341.626770,206.407104 
	C341.940674,206.804092 341.333710,208.458237 340.699982,208.997406 
	C327.437286,220.281403 314.071930,231.444717 300.805084,242.723862 
	C288.899933,252.845306 277.144836,263.143555 265.220673,273.242310 
	C253.200409,283.422485 241.020401,293.413849 228.976883,303.566833 
	C223.435928,308.237976 218.053696,313.097443 212.215164,318.207916 
	C203.548248,312.043945 194.858734,305.863922 186.029022,299.364349 
z"/>
<path fill="#66B2CF" opacity="1.000000" stroke="none" 
	d="
M328.044983,194.111755 
	C321.232330,199.993317 314.471893,205.936722 307.592865,211.739609 
	C300.236481,217.945190 292.758087,224.005981 285.351318,230.152100 
	C273.656952,239.856079 261.933105,249.525299 250.306335,259.309692 
	C240.770859,267.334198 231.354355,275.500244 221.894348,283.614258 
	C219.288376,285.849487 216.892532,288.394836 214.044220,290.251740 
	C212.828201,291.044495 210.350098,291.068848 209.050385,290.349487 
	C204.955307,288.082916 201.146835,285.298615 197.267456,282.117859 
	C199.912003,278.318909 202.516525,275.116760 205.121048,271.914642 
	C206.843369,273.144012 208.565674,274.373383 210.663879,275.871063 
	C223.372986,265.135773 236.153259,254.261917 249.020966,243.492523 
	C262.693451,232.049545 276.494141,220.759598 290.153992,209.301712 
	C301.450684,199.826126 312.786499,190.385132 323.774231,180.559006 
	C328.380615,176.439636 333.345795,175.367554 339.543457,176.483627 
	C340.321960,182.461136 335.938263,184.637268 332.617310,187.715149 
	C330.734436,189.460266 329.546112,191.954773 328.044983,194.111755 
z"/>
<path fill="#60A7CA" opacity="1.000000" stroke="none" 
	d="
M127.961372,550.118103 
	C115.562698,543.727844 103.164024,537.337646 90.301765,530.708435 
	C97.160576,518.833740 104.315277,507.898682 109.947227,496.228760 
	C114.317169,487.173859 120.712616,483.141541 130.209854,480.670593 
	C151.359528,475.167938 172.156082,468.308014 193.841660,462.057434 
	C198.531433,464.854187 198.517075,466.072052 195.288666,469.180145 
	C193.264526,471.128876 191.741119,473.597717 189.993042,475.833191 
	C178.095428,479.552460 166.208328,483.305695 154.296783,486.979767 
	C145.470901,489.702087 136.440308,491.880463 127.869652,495.241455 
	C125.111771,496.322968 123.246597,500.227600 121.463852,503.141022 
	C117.059975,510.337891 112.940216,517.708618 108.568550,525.246948 
	C117.434799,529.922424 125.874054,534.372681 134.650360,539.368042 
	C135.708588,545.423645 130.695343,546.986267 127.961372,550.118103 
z"/>
<path fill="#63ABCC" opacity="1.000000" stroke="none" 
	d="
M147.042694,468.113647 
	C137.687103,471.076782 128.404877,474.308807 118.944992,476.889740 
	C114.211098,478.181213 110.466820,479.977844 108.108109,484.517853 
	C99.789650,500.529053 91.307877,516.455444 82.907692,532.424255 
	C82.467903,533.260315 82.209137,534.191528 81.759537,535.353882 
	C89.073296,539.252258 96.205711,543.053955 103.660172,547.379517 
	C103.891785,553.223694 98.923401,554.297729 95.960968,557.117920 
	C85.275902,551.951599 74.590836,546.785217 63.384380,541.366760 
	C66.864120,534.698303 70.048592,528.326599 73.475357,522.087952 
	C79.578133,510.977448 85.831566,499.949768 92.013977,488.882996 
	C95.589325,482.482910 99.085411,476.037109 102.775002,469.703796 
	C103.429871,468.579651 104.725830,467.470825 105.953072,467.092743 
	C120.971733,462.465698 136.031616,457.972412 151.084610,453.457001 
	C152.782959,452.947540 154.504425,452.515076 156.600494,452.483521 
	C153.671432,457.984650 150.357071,463.049164 147.042694,468.113647 
z"/>
<path fill="#6AB9D1" opacity="1.000000" stroke="none" 
	d="
M104.552818,402.097778 
	C102.718018,406.251801 100.442322,410.337402 98.110641,414.771790 
	C94.104950,415.744537 90.159492,416.397247 86.204025,416.982361 
	C83.623650,417.364014 80.954849,417.368317 78.454834,418.029816 
	C72.117088,419.706848 69.694649,414.700348 66.756104,411.122009 
	C57.440907,399.778748 48.410564,388.201508 39.289860,376.699066 
	C39.119793,376.484619 39.193909,376.076477 39.095448,375.290802 
	C47.742455,374.191925 56.386837,373.100555 65.029167,371.993195 
	C74.885712,370.730194 84.739845,369.448486 94.596169,368.183807 
	C100.099899,367.477600 105.596497,366.700287 111.113274,366.115082 
	C118.438454,365.338043 125.780197,364.717316 133.554749,364.483185 
	C133.144516,366.975250 132.505844,369.139404 131.387512,371.018097 
	C130.152435,373.092865 128.477661,374.905884 126.994400,376.832947 
	C123.528412,377.543823 120.092110,378.504913 116.591064,378.920410 
	C104.273636,380.382233 91.929161,381.614441 79.605011,383.021820 
	C74.267082,383.631378 68.953644,384.455292 62.742043,385.302856 
	C68.162445,391.975586 73.327034,398.333374 78.375298,404.548004 
	C86.986687,403.705292 95.549309,402.867340 104.552818,402.097778 
z"/>
<path fill="#5492C1" opacity="1.000000" stroke="none" 
	d="
M361.992126,485.833496 
	C348.405548,485.833496 334.818939,485.833496 320.519867,485.833496 
	C323.970123,496.011261 327.131073,505.350677 330.302490,514.686584 
	C333.612091,524.429260 333.034729,525.793213 323.060364,530.857605 
	C319.028564,519.704285 314.423431,508.774109 311.195038,497.451447 
	C308.693146,488.676758 303.852081,483.112457 295.774933,479.193604 
	C285.372589,474.146576 275.393646,468.226227 265.248016,462.653473 
	C264.848022,462.433777 264.609467,461.920197 264.292786,461.540070 
	C271.000397,456.735962 278.520844,456.951324 286.077484,461.387329 
	C292.820343,465.345581 299.870697,468.791992 306.879028,472.275818 
	C308.252136,472.958344 310.053558,472.962891 311.658386,472.967621 
	C331.126221,473.024658 350.594238,473.023132 370.503418,473.463562 
	C370.286987,475.582062 369.988342,477.568298 368.894287,478.902100 
	C366.835938,481.411377 364.318634,483.544189 361.992126,485.833496 
z"/>
<path fill="#60A7CA" opacity="1.000000" stroke="none" 
	d="
M147.443085,468.065796 
	C150.357071,463.049164 153.671432,457.984650 156.991821,452.543396 
	C166.726257,449.111053 176.454681,446.055450 186.183136,442.999908 
	C193.514786,440.697174 200.846481,438.394470 208.748840,435.912506 
	C199.580627,424.079010 191.012085,413.004059 182.421555,401.946167 
	C180.918625,400.011566 178.832703,398.357788 177.910156,396.193207 
	C177.005768,394.071350 176.628860,391.326477 177.125671,389.101868 
	C177.815689,386.012207 179.536743,383.152802 181.264786,379.158386 
	C198.067917,400.769928 214.295273,421.640961 231.069260,443.215027 
	C202.626312,451.691589 175.234894,459.854767 147.443085,468.065796 
z"/>
<path fill="#5594C2" opacity="1.000000" stroke="none" 
	d="
M189.112335,567.955383 
	C205.817398,576.661987 222.522461,585.368591 239.837875,594.393250 
	C232.456635,603.383423 225.627975,611.700562 218.771240,620.051941 
	C199.451797,610.194519 180.558731,600.554688 161.802185,590.541870 
	C167.093674,588.812378 169.373703,585.428833 168.990509,580.167480 
	C184.689636,588.137390 200.388748,596.107300 216.433411,604.252625 
	C217.645218,602.621826 218.783447,601.090088 220.221237,599.155273 
	C206.854889,592.065247 193.751465,585.114685 180.435455,577.701599 
	C183.186035,574.144531 186.149185,571.049927 189.112335,567.955383 
z"/>
<path fill="#5CA0C8" opacity="1.000000" stroke="none" 
	d="
M64.833893,601.993713 
	C63.861351,607.572998 68.634026,608.529968 71.902756,610.344604 
	C87.096542,618.778870 102.407120,627.002808 117.662750,635.326111 
	C118.063736,635.544861 118.314240,636.039368 119.307213,637.172302 
	C110.710815,638.267334 103.459328,644.156006 94.652969,637.568604 
	C88.345222,632.850281 80.670341,629.959595 73.578300,626.239319 
	C70.550201,633.874634 67.416725,641.294800 64.732338,648.874023 
	C64.039886,650.829224 64.140884,653.541443 64.941193,655.462769 
	C67.675758,662.027466 70.884117,668.394775 73.566154,675.444336 
	C69.998878,679.607666 68.097015,684.796692 62.159286,684.993591 
	C61.971413,683.366089 62.197308,681.540100 61.527458,680.143799 
	C57.641655,672.044189 53.463772,664.084351 49.600372,655.974548 
	C48.965099,654.640991 48.882561,652.597473 49.418991,651.223389 
	C53.533493,640.683899 57.864296,630.228943 62.035027,619.976013 
	C58.486881,617.757446 55.260830,615.740295 52.423630,613.423096 
	C54.475304,612.517944 56.627644,612.369995 57.704041,611.217285 
	C60.344799,608.389465 62.489574,605.098389 64.833893,601.993713 
z"/>
<path fill="#6AB9D2" opacity="1.000000" stroke="none" 
	d="
M231.359406,178.972183 
	C233.303391,175.835876 235.532700,172.539185 237.839920,169.297958 
	C238.768829,167.993027 239.868469,166.809677 240.966919,165.228806 
	C251.059341,170.160645 261.075256,175.434692 271.296875,180.817047 
	C246.996338,204.328140 223.255737,227.297501 199.148651,250.621445 
	C196.247299,247.277954 193.706253,244.349655 190.575363,240.741653 
	C210.020233,221.892746 229.539932,202.971283 249.244812,183.870331 
	C244.919067,181.476028 240.701416,179.450363 236.829742,176.899582 
	C233.803848,174.906021 233.242111,177.840790 231.359406,178.972183 
z"/>
<path fill="#4477B6" opacity="1.000000" stroke="none" 
	d="
M475.992371,514.166016 
	C486.310760,514.109863 496.632690,514.174561 506.944092,513.876221 
	C508.624298,513.827515 510.875000,512.585632 511.806458,511.190552 
	C515.813538,505.188873 522.157288,502.572693 530.481018,504.047974 
	C536.177795,505.057678 540.907532,510.478058 542.008057,517.258240 
	C543.243408,524.869507 540.140991,531.748291 533.918762,535.015991 
	C527.487305,538.393677 518.828674,537.911621 513.899231,531.268494 
	C511.106384,527.504578 507.730133,526.824219 503.380615,526.914490 
	C491.565491,527.159790 479.741577,526.983887 467.482910,526.547241 
	C468.362701,524.400269 469.698151,522.693909 470.994537,520.958374 
	C472.676758,518.706421 474.327850,516.431213 475.992371,514.166016 
z"/>
<path fill="#4477B6" opacity="1.000000" stroke="none" 
	d="
M714.990295,221.167633 
	C746.045105,221.115173 777.099854,221.062592 808.154663,221.010422 
	C812.805115,221.002609 817.455505,220.996704 822.730713,221.236481 
	C823.891785,225.344940 824.428162,229.206879 824.964478,233.068817 
	C786.615967,233.037994 748.267395,233.007156 709.481628,232.550385 
	C709.999573,230.668152 711.068787,229.272430 711.882507,227.740982 
	C713.018433,225.602997 713.963562,223.363617 714.990295,221.167633 
z"/>
<path fill="#61A9CB" opacity="1.000000" stroke="none" 
	d="
M64.904678,601.690857 
	C62.489574,605.098389 60.344799,608.389465 57.704041,611.217285 
	C56.627644,612.369995 54.475304,612.517944 52.488777,613.056152 
	C52.120270,608.297363 52.075470,603.605530 52.185898,598.340515 
	C52.448753,597.477539 52.387936,597.223450 52.158669,597.005188 
	C52.547516,593.511780 51.187199,591.049377 47.781654,589.980408 
	C44.338329,588.899597 42.969383,586.638611 42.424263,583.068787 
	C41.234749,575.278931 39.519974,567.569275 38.093288,559.410767 
	C39.130116,558.837158 40.575062,559.025879 40.978035,558.465393 
	C43.441967,555.038330 45.669552,551.441284 47.982910,547.534424 
	C53.106476,549.132568 58.144447,551.346985 63.362507,552.989197 
	C68.234901,554.522461 70.627815,557.237366 71.355919,562.500488 
	C72.250702,568.968323 74.312592,575.274780 76.126740,582.702148 
	C70.841370,579.828857 66.279503,577.517517 61.930023,574.858826 
	C60.917740,574.240051 60.171204,572.469055 60.086861,571.177002 
	C59.765976,566.261353 57.585232,563.389587 52.441483,563.296814 
	C51.156109,572.726074 54.758884,579.433594 63.685936,584.296997 
	C66.948387,586.074402 70.130714,587.998779 73.598412,590.347900 
	C71.215446,593.933899 68.583679,597.028259 65.951920,600.122559 
	C65.626434,600.544373 65.300957,600.966187 64.904678,601.690857 
z"/>
<path fill="#5390C0" opacity="1.000000" stroke="none" 
	d="
M223.591858,663.116089 
	C220.713806,667.919922 217.435745,672.673706 214.099030,677.773132 
	C201.441391,681.071716 188.854446,684.077454 176.240005,686.962952 
	C163.575226,689.860046 150.879440,692.621338 138.204285,695.473389 
	C131.723572,696.931702 125.258179,698.458069 118.466942,699.556152 
	C118.981331,697.950928 120.091827,696.847595 120.593651,695.515137 
	C121.872200,692.120300 122.878883,688.623169 123.994377,685.166931 
	C135.263916,682.761047 146.545990,680.412231 157.800247,677.936890 
	C179.014053,673.271179 200.212509,668.535522 221.413040,663.809692 
	C222.030563,663.672119 222.600006,663.318787 223.591858,663.116089 
z"/>
<path fill="#68B6D0" opacity="1.000000" stroke="none" 
	d="
M57.682194,453.724182 
	C50.592579,463.580658 43.756531,473.186157 37.042671,482.876373 
	C31.222616,491.276581 25.541100,499.772797 19.751770,508.295135 
	C15.268665,506.319824 11.295537,504.569244 6.928807,502.645203 
	C13.021869,493.819672 18.941563,485.161652 24.949133,476.565033 
	C32.229183,466.147583 39.476952,455.703979 46.989529,445.455536 
	C48.623631,443.226410 51.163715,441.526672 53.560108,440.017517 
	C59.541443,436.250580 65.680069,432.733368 72.328735,428.774658 
	C73.197174,434.054932 73.950249,438.633698 74.742668,443.451782 
	C69.347206,446.690948 63.668011,450.100494 57.682194,453.724182 
z"/>
<path fill="#5B9FC7" opacity="1.000000" stroke="none" 
	d="
M190.380188,475.897644 
	C191.741119,473.597717 193.264526,471.128876 195.288666,469.180145 
	C198.517075,466.072052 198.531433,464.854187 194.240906,462.034119 
	C205.239670,458.330200 216.540649,454.561249 227.939407,451.115967 
	C244.057709,446.244171 260.238220,441.576691 276.415253,436.901733 
	C280.284027,435.783691 284.243927,434.981018 288.651672,434.441223 
	C290.701233,438.554657 288.349823,440.708099 286.047058,442.992523 
	C284.559235,444.468506 283.335236,446.210449 281.993011,447.833191 
	C271.550812,451.207764 261.146790,454.706604 250.657578,457.928101 
	C234.425613,462.913391 218.134659,467.706573 201.870590,472.587433 
	C198.165573,473.699280 194.468216,474.836548 190.380188,475.897644 
z"/>
<path fill="#528EC0" opacity="1.000000" stroke="none" 
	d="
M617.994324,118.165649 
	C626.482239,118.109314 634.971497,117.945824 643.457153,118.058990 
	C646.162598,118.095070 647.923462,117.392998 649.481567,115.059135 
	C654.243958,107.925674 666.195740,105.372887 672.394470,109.947701 
	C680.814026,116.161491 682.816223,127.581390 676.154602,135.063278 
	C669.306946,142.754089 656.503540,143.511475 650.001526,133.700058 
	C648.197266,130.977463 646.279053,129.811615 642.892883,129.907623 
	C633.576477,130.171783 624.247253,129.986465 614.573853,129.598053 
	C617.469543,126.211571 620.288452,123.060661 617.994324,118.165649 
z"/>
<path fill="#5A9CC5" opacity="1.000000" stroke="none" 
	d="
M464.994659,176.165970 
	C468.648743,176.108856 472.303192,176.069351 475.956818,175.990570 
	C481.738098,175.865936 487.175751,177.017838 491.620483,170.449661 
	C495.502228,164.713486 503.009491,164.693039 509.633331,167.075531 
	C516.251648,169.456039 518.848572,175.102478 519.873291,181.430328 
	C520.882751,187.663757 515.496094,195.495560 509.213928,197.894699 
	C500.901825,201.069077 492.975830,197.127136 489.959656,192.655167 
	C488.228943,190.089035 486.302338,188.735489 482.862579,188.891998 
	C475.230255,189.239273 467.570679,188.987671 459.483887,188.557343 
	C460.452118,186.167542 462.105164,184.326172 463.190460,182.195587 
	C464.127258,180.356567 464.418213,178.188553 464.994659,176.165970 
z"/>
<path fill="#4B83BB" opacity="1.000000" stroke="none" 
	d="
M714.525879,221.105133 
	C713.963562,223.363617 713.018433,225.602997 711.882507,227.740982 
	C711.068787,229.272430 709.999573,230.668152 709.017273,232.477997 
	C676.300110,232.880753 643.610107,232.929932 610.550537,232.574677 
	C611.309998,231.331696 612.328247,230.230621 613.586975,229.699463 
	C619.458923,227.221619 619.563477,227.077469 616.991577,221.166336 
	C649.348206,221.125107 681.704895,221.083862 714.525879,221.105133 
z"/>
<path fill="#4579B7" opacity="1.000000" stroke="none" 
	d="
M349.994080,653.167236 
	C356.650970,653.167236 363.307861,653.167236 370.060486,653.167236 
	C373.507874,646.205688 378.738281,641.538147 386.576691,642.160034 
	C393.234131,642.688232 398.487061,646.089050 401.371796,652.745361 
	C405.144562,661.450745 399.575531,670.988403 393.751495,673.730835 
	C385.768311,677.489990 376.545044,674.992371 371.802429,667.771545 
	C370.887451,666.378479 368.605072,665.188293 366.907288,665.124023 
	C359.255127,664.833923 351.586365,664.982605 343.540558,664.578857 
	C345.436401,660.512085 347.715240,656.839661 349.994080,653.167236 
z"/>
<path fill="#4E87BC" opacity="1.000000" stroke="none" 
	d="
M415.994873,434.165222 
	C421.815765,434.107971 427.645477,434.212402 433.452179,433.895355 
	C435.203644,433.799744 437.429169,432.994446 438.515839,431.725189 
	C443.482666,425.923676 449.180542,423.811218 455.684784,425.897003 
	C463.341187,428.352264 467.699646,432.950470 467.994659,438.884033 
	C468.499207,449.031738 466.237549,454.392059 458.593048,456.969910 
	C450.250000,459.783325 442.018982,458.582214 437.773834,450.196411 
	C436.389160,447.461090 434.614288,446.905426 431.892365,446.958557 
	C425.238434,447.088409 418.579987,446.985840 411.550842,446.578064 
	C411.852997,445.499023 412.411713,444.598389 413.220398,444.172791 
	C420.932861,440.113770 420.945007,440.136871 415.994873,434.165222 
z"/>
<path fill="#3851A7" opacity="1.000000" stroke="none" 
	d="
M560.951538,315.949951 
	C563.974548,307.308472 572.532593,302.412109 581.722839,304.065948 
	C590.824646,305.703857 596.943420,313.094727 596.998718,322.517822 
	C597.050720,331.374634 590.802979,339.630798 583.023315,340.985962 
	C572.152100,342.879639 564.399597,338.917999 560.883057,328.962219 
	C560.832581,324.114166 560.892029,320.032043 560.951538,315.949951 
z"/>
<path fill="#3851A7" opacity="1.000000" stroke="none" 
	d="
M824.995178,233.425476 
	C824.428162,229.206879 823.891785,225.344940 823.199707,221.186218 
	C828.007385,206.445450 841.292969,203.468842 852.221191,209.702850 
	C859.889893,214.077408 862.747437,224.565033 859.061279,232.797958 
	C855.187744,241.449493 845.773926,246.118942 837.120056,243.552521 
	C831.785645,241.970535 827.031616,239.544174 824.995178,233.425476 
z"/>
<path fill="#528EC0" opacity="1.000000" stroke="none" 
	d="
M616.527222,221.102509 
	C619.563477,227.077469 619.458923,227.221619 613.586975,229.699463 
	C612.328247,230.230621 611.309998,231.331696 610.086304,232.501678 
	C579.634583,232.882141 549.277527,232.931152 518.542603,232.586227 
	C520.773743,228.516953 523.382751,224.841599 525.991821,221.166245 
	C556.015503,221.123734 586.039246,221.081223 616.527222,221.102509 
z"/>
<path fill="#66B2CF" opacity="1.000000" stroke="none" 
	d="
M129.442749,351.908630 
	C131.645020,347.775940 134.296677,343.718201 136.965576,339.295258 
	C141.085999,338.285217 145.168549,337.417389 149.296051,337.035309 
	C164.759766,335.603882 180.330627,334.954407 195.663742,332.679840 
	C201.466217,331.819092 203.449371,334.315948 205.975861,337.831482 
	C208.237396,340.978333 210.504471,344.121216 212.758255,347.895905 
	C210.129196,351.700928 207.510986,354.875916 204.892776,358.050903 
	C202.899811,355.555420 200.851501,353.101685 198.928116,350.553680 
	C196.607483,347.479431 194.225174,345.305908 189.732941,345.904327 
	C175.378052,347.816620 160.977066,349.398987 146.575333,350.934967 
	C141.039963,351.525330 135.454681,351.647858 129.442749,351.908630 
z"/>
<path fill="#4E88BD" opacity="1.000000" stroke="none" 
	d="
M362.456329,485.906189 
	C364.318634,483.544189 366.835938,481.411377 368.894287,478.902100 
	C369.988342,477.568298 370.286987,475.582062 370.967529,473.528229 
	C396.751190,473.166107 422.512024,473.166107 448.630432,473.166107 
	C448.630432,477.322357 448.630432,481.363159 448.630432,485.978821 
	C420.026642,485.978821 391.473572,485.978821 362.456329,485.906189 
z"/>
<path fill="#5899C4" opacity="1.000000" stroke="none" 
	d="
M329.455505,361.907318 
	C330.988342,357.858521 332.985168,353.883942 334.986572,349.538086 
	C362.014984,349.123322 389.038818,349.079834 416.503662,349.453247 
	C414.293518,353.857849 411.642365,357.845520 408.991211,361.833221 
	C382.633972,361.882660 356.276764,361.932098 329.455505,361.907318 
z"/>
<path fill="#5899C4" opacity="1.000000" stroke="none" 
	d="
M123.613754,685.242554 
	C122.878883,688.623169 121.872200,692.120300 120.593651,695.515137 
	C120.091827,696.847595 118.981331,697.950928 118.071167,699.495605 
	C98.222107,704.298218 78.449905,708.763733 57.737675,713.441589 
	C59.245815,703.723083 60.632874,694.784790 62.089607,685.420044 
	C68.097015,684.796692 69.998878,679.607666 73.552628,675.843384 
	C74.388474,678.145630 75.534523,680.729553 75.256653,683.149963 
	C74.745964,687.598389 73.396957,691.950562 72.239708,697.035645 
	C89.497452,693.070129 106.365295,689.194153 123.613754,685.242554 
z"/>
<path fill="#5696C3" opacity="1.000000" stroke="none" 
	d="
M92.890778,751.043701 
	C81.745132,740.628113 70.599495,730.212463 59.453854,719.796814 
	C59.597893,719.281738 59.741932,718.766602 59.885971,718.251465 
	C81.654251,713.179932 103.422531,708.108398 125.569717,703.461182 
	C124.086441,706.679626 122.249496,709.491028 120.352165,712.261108 
	C119.284370,713.820007 118.116913,715.310669 116.994354,716.832031 
	C105.482780,719.281921 93.971207,721.731812 81.667923,724.350220 
	C87.715263,730.339355 93.245918,735.816833 98.780197,741.921509 
	C99.101921,746.963684 98.619286,750.823242 92.890778,751.043701 
z"/>
<path fill="#5CA1C8" opacity="1.000000" stroke="none" 
	d="
M231.109344,411.953491 
	C233.728714,415.239838 236.653610,418.334137 238.875992,421.870026 
	C240.844589,425.002106 242.716080,426.199097 246.270798,424.405334 
	C248.248734,423.407257 250.598175,423.145447 253.663986,422.311371 
	C248.717957,415.947205 243.972076,409.840546 239.174103,403.070435 
	C240.081039,401.362488 240.890442,399.652679 242.026901,399.397064 
	C245.571350,398.599854 246.668350,396.118500 247.355637,393.109467 
	C247.355637,393.109467 247.728607,393.276520 247.911865,393.693848 
	C248.352173,394.402771 248.609253,394.694427 248.866333,394.986084 
	C257.379059,406.207520 265.891785,417.428955 274.764618,429.125061 
	C262.781708,433.219696 251.581711,437.251434 240.203232,440.693146 
	C238.666397,441.157990 235.703400,439.100891 234.317184,437.444611 
	C230.684677,433.104340 227.559021,428.339874 224.317139,423.181274 
	C229.117386,420.622131 229.730530,416.047058 231.109344,411.953491 
z"/>
<path fill="#5899C4" opacity="1.000000" stroke="none" 
	d="
M525.527649,221.101318 
	C523.382751,224.841599 520.773743,228.516953 518.078491,232.512634 
	C490.634735,232.882751 463.277191,232.932541 435.455566,232.908173 
	C436.048584,231.291061 437.241852,229.821930 438.127930,228.186340 
	C439.216797,226.176422 440.049225,224.027573 440.991821,221.552292 
	C469.015259,221.122665 497.039368,221.079514 525.527649,221.101318 
z"/>
<path fill="#5CA1C8" opacity="1.000000" stroke="none" 
	d="
M462.992798,118.166718 
	C490.349579,118.122620 517.706360,118.078522 545.522949,118.475159 
	C543.985718,122.555328 541.988586,126.194763 539.991516,129.834198 
	C512.634583,129.883636 485.277618,129.933060 457.531769,129.572449 
	C458.075867,127.631424 459.089844,126.143005 459.921783,124.558960 
	C461.020172,122.467453 461.975800,120.300972 462.992798,118.166718 
z"/>
<path fill="#528EC0" opacity="1.000000" stroke="none" 
	d="
M93.028618,751.351929 
	C98.619286,750.823242 99.101921,746.963684 98.917419,742.223877 
	C102.322701,746.233459 106.189621,745.781616 111.100090,744.568298 
	C132.031677,739.395935 153.104813,734.796509 174.540726,729.938599 
	C176.310776,735.578369 170.313324,736.832275 168.430267,740.593384 
	C167.732529,741.987000 166.272339,742.998840 165.077316,744.508545 
	C148.145920,748.888855 131.297668,752.947815 114.445976,756.992432 
	C113.813744,757.144226 113.047424,756.971558 112.513100,757.261963 
	C104.197166,761.782166 98.108910,758.725220 93.028618,751.351929 
z"/>
<path fill="#528EC0" opacity="1.000000" stroke="none" 
	d="
M409.455353,361.906769 
	C411.642365,357.845520 414.293518,353.857849 416.967712,349.518311 
	C441.090515,349.166412 465.190247,349.166412 489.640808,349.166412 
	C489.640808,353.318542 489.640808,357.361420 489.640808,361.980316 
	C463.038544,361.980316 436.479004,361.980316 409.455353,361.906769 
z"/>
<path fill="#5CA0C8" opacity="1.000000" stroke="none" 
	d="
M66.114227,600.435547 
	C68.583679,597.028259 71.215446,593.933899 73.919418,590.503052 
	C85.646431,596.605835 97.333397,602.987854 108.946014,609.502380 
	C118.455856,614.837341 127.876129,620.332031 137.338394,625.751831 
	C139.559082,627.023743 141.789047,628.279419 145.202942,630.216858 
	C138.561325,632.007446 133.085907,633.553406 127.558662,634.884216 
	C126.877632,635.048218 125.915588,634.071655 125.091278,633.610229 
	C111.028221,625.736755 96.969276,617.855896 82.902763,609.988647 
	C77.369064,606.893616 71.819092,603.827637 66.114227,600.435547 
z"/>
<path fill="#4980BA" opacity="1.000000" stroke="none" 
	d="
M475.527954,514.102783 
	C474.327850,516.431213 472.676758,518.706421 470.994537,520.958374 
	C469.698151,522.693909 468.362701,524.400269 467.018555,526.476318 
	C443.968170,526.881470 420.943909,526.929871 397.455200,526.906616 
	C392.100647,522.869934 397.205353,518.906311 396.991760,514.554077 
	C423.015289,514.124023 449.039398,514.081848 475.527954,514.102783 
z"/>
<path fill="#5CA0C8" opacity="1.000000" stroke="none" 
	d="
M168.664902,580.011230 
	C169.373703,585.428833 167.093674,588.812378 161.531250,590.277161 
	C139.979599,579.666748 118.835945,568.946960 97.687416,558.236816 
	C97.250229,558.015381 96.756615,557.905457 96.125153,557.430725 
	C98.923401,554.297729 103.891785,553.223694 103.986511,547.535278 
	C125.440300,558.063110 146.889801,568.958984 168.664902,580.011230 
z"/>
<path fill="#3F71B3" opacity="1.000000" stroke="none" 
	d="
M489.992798,577.167053 
	C513.407532,577.167053 536.822205,577.167053 560.614014,577.167053 
	C560.614014,581.327759 560.614014,585.360168 560.614014,589.973755 
	C535.336121,589.973755 510.128510,589.973755 484.459381,589.518738 
	C484.972473,586.901978 485.880707,584.707031 486.941772,582.588623 
	C487.869385,580.736633 488.969086,578.970886 489.992798,577.167053 
z"/>
<path fill="#68B4D0" opacity="1.000000" stroke="none" 
	d="
M376.992584,129.833389 
	C350.635742,129.883484 324.278870,129.933594 297.545807,129.584747 
	C300.253296,126.116539 303.434082,123.098595 302.994537,118.166840 
	C330.017944,118.121574 357.041382,118.076302 384.505981,118.448471 
	C384.012482,120.362564 383.167908,121.925835 382.122345,123.340523 
	C380.483795,125.557556 378.709442,127.674217 376.992584,129.833389 
z"/>
<path fill="#599AC5" opacity="1.000000" stroke="none" 
	d="
M346.457703,328.905945 
	C347.477448,326.905273 349.152863,325.092560 350.387939,323.017731 
	C351.506042,321.139282 352.143707,318.974854 352.992798,316.551758 
	C377.682861,316.123016 402.373322,316.079041 427.454834,316.439362 
	C424.894531,320.840088 421.943176,324.836456 418.991821,328.832825 
	C394.968384,328.881805 370.944977,328.930786 346.457703,328.905945 
z"/>
<path fill="#5594C2" opacity="1.000000" stroke="none" 
	d="
M328.992676,406.168060 
	C354.091461,406.168060 379.190247,406.168060 404.637939,406.168060 
	C404.637939,409.982300 404.637939,413.692902 404.637939,417.978943 
	C377.707245,417.978943 350.813873,417.978943 323.464050,417.537354 
	C323.975067,415.260437 324.919891,413.412720 325.916412,411.593323 
	C326.915009,409.770203 327.965149,407.975342 328.992676,406.168060 
z"/>
<path fill="#63ABCC" opacity="1.000000" stroke="none" 
	d="
M377.456421,129.908401 
	C378.709442,127.674217 380.483795,125.557556 382.122345,123.340523 
	C383.167908,121.925835 384.012482,120.362564 384.969788,118.516357 
	C410.683197,118.122162 436.373993,118.077507 462.528809,118.099785 
	C461.975800,120.300972 461.020172,122.467453 459.921783,124.558960 
	C459.089844,126.143005 458.075867,127.631424 457.067932,129.497711 
	C430.635406,129.883148 404.277802,129.933289 377.456421,129.908401 
z"/>
<path fill="#4579B7" opacity="1.000000" stroke="none" 
	d="
M489.528320,577.104004 
	C488.969086,578.970886 487.869385,580.736633 486.941772,582.588623 
	C485.880707,584.707031 484.972473,586.901978 483.994873,589.448669 
	C460.302368,589.880005 436.612885,589.926331 412.544830,589.567139 
	C413.442139,585.163818 414.717987,581.166016 415.993866,577.168213 
	C440.350525,577.125793 464.707184,577.083374 489.528320,577.104004 
z"/>
<path fill="#5492C1" opacity="1.000000" stroke="none" 
	d="
M419.456055,328.905792 
	C421.943176,324.836456 424.894531,320.840088 427.918823,316.505585 
	C451.682281,316.123718 475.372772,316.079956 499.448975,316.425598 
	C498.725128,318.207764 497.483124,319.516571 496.535675,321.012024 
	C494.923523,323.556702 493.496704,326.218750 491.992035,328.831512 
	C467.968109,328.880585 443.944214,328.929657 419.456055,328.905792 
z"/>
<path fill="#66B1CF" opacity="1.000000" stroke="none" 
	d="
M127.434509,376.907471 
	C128.477661,374.905884 130.152435,373.092865 131.387512,371.018097 
	C132.505844,369.139404 133.144516,366.975250 133.994934,364.552185 
	C137.472000,363.454620 140.918991,362.489594 144.431000,362.074554 
	C156.790329,360.613892 169.173615,359.356628 181.542435,357.974182 
	C182.652573,357.850067 183.706955,357.223877 184.816956,357.102325 
	C187.222885,356.838867 189.301041,356.690460 191.076416,359.368958 
	C194.311676,364.250031 198.201248,368.697418 201.665619,373.815430 
	C198.661179,376.582458 195.808975,378.859772 192.956757,381.137085 
	C190.224030,377.536377 187.491302,373.935699 184.774536,370.356049 
	C174.418228,371.571716 164.065720,372.793762 153.711395,374.000214 
	C145.100250,375.003601 136.486954,375.988770 127.434509,376.907471 
z"/>
<path fill="#5696C3" opacity="1.000000" stroke="none" 
	d="
M540.455566,129.908310 
	C541.988586,126.194763 543.985718,122.555328 545.986938,118.540771 
	C569.682678,118.121727 593.374268,118.077820 617.530029,118.099777 
	C620.288452,123.060661 617.469543,126.211571 614.109802,129.525665 
	C589.636597,129.883591 565.278076,129.932999 540.455566,129.908310 
z"/>
<path fill="#5EA3C9" opacity="1.000000" stroke="none" 
	d="
M464.530609,176.098724 
	C464.418213,178.188553 464.127258,180.356567 463.190460,182.195587 
	C462.105164,184.326172 460.452118,186.167542 459.019958,188.484070 
	C436.970367,188.883179 414.946381,188.932678 392.484375,188.550888 
	C393.086914,186.321747 394.224945,184.572006 395.142426,182.713379 
	C396.195160,180.580765 397.052429,178.351685 397.994629,176.164505 
	C420.018616,176.120163 442.042572,176.075836 464.530609,176.098724 
z"/>
<path fill="#528EC0" opacity="1.000000" stroke="none" 
	d="
M415.530579,434.099670 
	C420.945007,440.136871 420.932861,440.113770 413.220398,444.172791 
	C412.411713,444.598389 411.852997,445.499023 411.086700,446.506561 
	C389.970917,446.881958 368.946747,446.930084 347.541138,446.577881 
	C349.202972,443.340210 351.246307,440.502930 353.358246,437.570374 
	C352.946564,436.543274 352.470459,435.355499 351.994385,434.167755 
	C373.018341,434.123230 394.042328,434.078705 415.530579,434.099670 
z"/>
<path fill="#4F8ABE" opacity="1.000000" stroke="none" 
	d="
M492.456360,328.903595 
	C493.496704,326.218750 494.923523,323.556702 496.535675,321.012024 
	C497.483124,319.516571 498.725128,318.207764 499.912964,316.491425 
	C520.002502,316.111389 540.013733,316.054962 560.488159,315.974243 
	C560.892029,320.032043 560.832581,324.114166 560.852539,328.592926 
	C538.261536,328.984955 515.591125,328.980316 492.456360,328.903595 
z"/>
<path fill="#5696C3" opacity="1.000000" stroke="none" 
	d="
M351.530182,434.101624 
	C352.470459,435.355499 352.946564,436.543274 353.358246,437.570374 
	C351.246307,440.502930 349.202972,443.340210 347.077057,446.505554 
	C328.690155,446.890900 310.385559,446.904907 292.081940,447.047882 
	C289.000305,447.071930 285.923065,447.653259 282.418396,447.905151 
	C283.335236,446.210449 284.559235,444.468506 286.047058,442.992523 
	C288.349823,440.708099 290.701233,438.554657 289.066772,434.507507 
	C309.683441,434.122437 330.374695,434.078979 351.530182,434.101624 
z"/>
<path fill="#5594C2" opacity="1.000000" stroke="none" 
	d="
M283.670319,547.012329 
	C286.123810,553.253174 281.074738,554.493469 277.212219,556.899536 
	C268.048004,551.986450 259.191071,546.933411 250.350952,541.851013 
	C241.631393,536.838013 232.928864,531.795288 224.155151,526.108765 
	C226.074814,522.262573 228.058228,519.073181 230.041626,515.883850 
	C239.218033,520.980591 248.472351,525.943115 257.548401,531.212708 
	C266.245148,536.261963 274.756836,541.629944 283.670319,547.012329 
z"/>
<path fill="#5B9EC7" opacity="1.000000" stroke="none" 
	d="
M188.937347,567.642090 
	C186.149185,571.049927 183.186035,574.144531 180.108643,577.548340 
	C162.759903,568.818726 145.525375,559.779907 128.126114,550.429565 
	C130.695343,546.986267 135.708588,545.423645 134.981949,539.524414 
	C143.826614,543.814331 152.663879,548.517395 161.530411,553.164673 
	C170.592804,557.914490 179.683868,562.609619 188.937347,567.642090 
z"/>
<path fill="#63ABCC" opacity="1.000000" stroke="none" 
	d="
M397.530640,176.096802 
	C397.052429,178.351685 396.195160,180.580765 395.142426,182.713379 
	C394.224945,184.572006 393.086914,186.321747 392.020477,188.477295 
	C374.764587,188.892136 357.531921,189.132980 340.306122,188.889725 
	C335.410217,188.820602 331.793396,190.377792 328.364502,193.969177 
	C329.546112,191.954773 330.734436,189.460266 332.617310,187.715149 
	C335.938263,184.637268 340.321960,182.461136 339.994324,176.552155 
	C359.018402,176.119858 378.042511,176.074493 397.530640,176.096802 
z"/>
<path fill="#5B9EC7" opacity="1.000000" stroke="none" 
	d="
M229.873871,515.580627 
	C228.058228,519.073181 226.074814,522.262573 223.999557,525.791504 
	C205.177505,515.013733 186.447311,503.896332 166.624786,492.130585 
	C172.166351,490.147125 176.440552,488.532806 180.787003,487.144653 
	C181.512863,486.912811 182.639801,487.515259 183.434311,487.982361 
	C198.871323,497.058472 214.286484,506.171753 229.873871,515.580627 
z"/>
<path fill="#4980BA" opacity="1.000000" stroke="none" 
	d="
M415.529480,577.103760 
	C414.717987,581.166016 413.442139,585.163818 412.080566,589.496582 
	C392.637421,589.878906 373.279999,589.926270 353.458405,589.901855 
	C354.477783,587.903687 356.153198,586.091492 357.388214,584.017090 
	C358.506409,582.138916 359.144196,579.974792 359.993866,577.552063 
	C378.350952,577.124756 396.708038,577.082031 415.529480,577.103760 
z"/>
<path fill="#60A7CA" opacity="1.000000" stroke="none" 
	d="
M247.185211,392.840637 
	C246.668350,396.118500 245.571350,398.599854 242.026901,399.397064 
	C240.890442,399.652679 240.081039,401.362488 239.040405,402.761536 
	C228.421906,389.364044 217.881668,375.614563 207.354919,361.854797 
	C206.577362,360.838440 205.896957,359.747803 205.032089,358.371277 
	C207.510986,354.875916 210.129196,351.700928 212.900238,348.210388 
	C224.373642,362.787140 235.694214,377.679474 247.185211,392.840637 
z"/>
<path fill="#5B9EC7" opacity="1.000000" stroke="none" 
	d="
M328.528564,406.101990 
	C327.965149,407.975342 326.915009,409.770203 325.916412,411.593323 
	C324.919891,413.412720 323.975067,415.260437 323.000061,417.463562 
	C308.665649,417.887146 294.338348,417.999359 280.012512,417.899811 
	C278.761108,417.891113 276.968628,416.790955 276.368134,415.686371 
	C273.721710,410.818268 271.420227,405.762665 268.940582,400.408752 
	C272.076324,402.196777 274.335999,400.931061 276.248932,398.111511 
	C277.162598,396.764862 278.223541,395.518158 279.525208,394.111816 
	C282.803528,405.015839 290.294617,407.348114 300.820892,406.207062 
	C309.802734,405.233459 318.975922,406.025085 328.528564,406.101990 
z"/>
<path fill="#6DBDD3" opacity="1.000000" stroke="none" 
	d="
M302.530731,118.097687 
	C303.434082,123.098595 300.253296,126.116539 297.082153,129.509674 
	C278.303925,129.883255 259.613098,129.932983 240.458496,129.908112 
	C241.312073,126.186981 242.629440,122.540443 243.971054,118.530304 
	C263.352509,118.120651 282.709717,118.074600 302.530731,118.097687 
z"/>
<path fill="#5390C0" opacity="1.000000" stroke="none" 
	d="
M117.402954,716.902283 
	C118.116913,715.310669 119.284370,713.820007 120.352165,712.261108 
	C122.249496,709.491028 124.086441,706.679626 125.972198,703.526855 
	C131.659882,701.778870 137.372162,699.162964 142.973083,699.382996 
	C147.568436,699.563477 152.272400,702.716248 156.500290,705.262268 
	C164.130829,709.857361 171.441589,714.983459 179.956635,720.593079 
	C173.904846,722.205688 168.716019,724.412781 163.433762,724.665222 
	C160.582733,724.801453 156.985291,722.154541 154.736908,719.797607 
	C145.983337,710.621399 135.834595,712.523438 125.401527,715.271118 
	C122.895966,715.931030 120.342819,716.410217 117.402954,716.902283 
z"/>
<path fill="#4980BA" opacity="1.000000" stroke="none" 
	d="
M349.529694,653.102783 
	C347.715240,656.839661 345.436401,660.512085 343.076294,664.508423 
	C324.971100,664.879517 306.947174,664.926819 288.458862,664.903564 
	C289.481750,662.902100 291.089417,661.049744 292.417542,659.014954 
	C293.453308,657.428162 294.141571,655.614563 294.989105,653.534302 
	C313.017761,653.124084 331.041534,653.081238 349.529694,653.102783 
z"/>
<path fill="#60A7CA" opacity="1.000000" stroke="none" 
	d="
M193.096329,381.445496 
	C195.808975,378.859772 198.661179,376.582458 201.810577,374.128479 
	C211.071869,385.464935 220.041199,396.973969 228.989746,408.499176 
	C229.674454,409.381012 230.212265,410.376923 230.963852,411.636658 
	C229.730530,416.047058 229.117386,420.622131 224.171310,422.874847 
	C213.705109,409.339050 203.470490,395.546478 193.096329,381.445496 
z"/>
<path fill="#6AB9D2" opacity="1.000000" stroke="none" 
	d="
M204.969696,271.593079 
	C202.516525,275.116760 199.912003,278.318909 197.113586,281.802917 
	C186.763855,275.090576 176.602356,268.104584 166.459137,261.092133 
	C165.136627,260.177826 163.908295,259.127228 162.323273,257.986877 
	C165.618073,255.407257 168.393311,252.486496 168.033600,247.292679 
	C176.496292,252.559601 184.935333,258.254059 193.408005,263.898010 
	C197.176483,266.408325 201.012802,268.816803 204.969696,271.593079 
z"/>
<path fill="#5CA0C8" opacity="1.000000" stroke="none" 
	d="
M52.099663,597.251343 
	C52.387936,597.223450 52.448753,597.477539 52.252533,597.877930 
	C52.122845,597.824829 52.081753,597.661133 52.099663,597.251343 
z"/>
<path fill="#60A7CA" opacity="1.000000" stroke="none" 
	d="
M248.849518,394.657593 
	C248.609253,394.694427 248.352173,394.402771 247.884125,393.896271 
	C248.059647,393.897308 248.446167,394.113190 248.849518,394.657593 
z"/>
<path fill="#000000" opacity="1.000000" stroke="none" 
	d="
M76.706558,306.011963 
	C77.100388,306.311707 77.198898,306.705994 77.124603,307.482056 
	C76.771614,307.278046 76.591431,306.692261 76.706558,306.011963 
z"/>
</svg>